<?xml version="1.0" encoding="UTF-8" standalone="no"?>
<svg class="icon-svg icon-services-engineering-small service-icon" xmlns="http://www.w3.org/2000/svg" xmlns:xlink="http://www.w3.org/1999/xlink" viewBox="0 0 32 32">
 <path d="m1 0h30v1h-30v-1zm0 31h30v1h-30v-1z"/>
 <path d="m30 0h1v32h-1v-32zm-29 0h1v32h-1v-32z"/>
 <path d="m1 3.5h30v1h-30v-1zm3.5 5.5h4v1h-4v-1zm0 10.5h4v1h-4v-1zm5.5-10.5h6v1h-6v-1zm-2.5 3.5h4v1h-4v-1zm0 14h4v1h-4v-1zm6.5-14h11v1h-11v-1zm0 14h13.5v1h-13.5v-1zm0-10.5h13.5v1h-13.5v-1zm-4 7h14.5v1h-14.5v-1zm0-3.5h9v1h-9v-1z"/>
</svg>
