<svg xmlns="http://www.w3.org/2000/svg" xmlns:svg="http://www.w3.org/2000/svg" xmlns:xlink="http://www.w3.org/1999/xlink" viewBox="0 0 32 32" class="icon-svg icon-services-engineering-small service-icon">
  <path d="M1 0h30v1h-30v-1zM1 31h30v1h-30v-1z"></path>
  <path d="M30 0h1v32h-1v-32zM1 0h1v32h-1v-32z"></path>
  <path d="M1 3.5h30v1h-30v-1zM4.5 9h4v1h-4v-1zM4.5 19.5h4v1h-4v-1zM10 9h6v1h-6v-1zM7.5 12.5h4v1h-4v-1zM7.5 26.5h4v1h-4v-1zM14 12.5h11v1h-11v-1zM14 26.5h13.5v1h-13.5v-1zM14 16h13.5v1h-13.5v-1zM10 23h14.5v1h-14.5v-1zM10 19.5h9v1h-9v-1z"></path>
</svg>