<?xml version="1.0" encoding="UTF-8" standalone="no"?>
<svg aria-label="Large Engineering" xmlns="http://www.w3.org/2000/svg" viewBox="0 0 41 32" xmlns:xlink="http://www.w3.org/1999/xlink" class="icon-svg">
 <path d="m3.984 31.248h35.221v-28.242h-35.221v28.242zm-0.215-28.456h35.651v28.671h-35.651v-28.671z" fill="#424242"/>
 <path d="m2.91 3.544h34.362v26.201h-34.362v-26.201z" fill="#fff"/>
 <path d="m1.621 6.121h35.651v23.517h-35.651v-23.517z" fill="#f5f5f5"/>
 <path d="m40.279 0.752v-0.215h-39.732v29.208h0.215v-1.181h35.436v-23.517h1.933v-0.215h-1.933v-4.081h4.081zm-4.295 27.597h-35.221v-23.302h35.221v23.302z" fill="#424242"/>
 <path d="m3.984 2.792c0 0.297-0.24 0.537-0.537 0.537s-0.537-0.24-0.537-0.537c0-0.297 0.24-0.537 0.537-0.537s0.537 0.24 0.537 0.537zm4.295 0c0 0.297-0.24 0.537-0.537 0.537s-0.537-0.24-0.537-0.537c0-0.297 0.24-0.537 0.537-0.537s0.537 0.24 0.537 0.537zm-2.147 0c0 0.297-0.24 0.537-0.537 0.537s-0.537-0.24-0.537-0.537c0-0.297 0.24-0.537 0.537-0.537s0.537 0.24 0.537 0.537z" fill="#fff"/>
 <path d="m3.986 9.342h3.758v0.537h-3.758v-0.537z" fill="#424242"/>
 <path d="m9.892 9.342h12.886v0.537h-12.886v-0.537z" fill="#ffca74"/>
 <path d="m12.039 13.638h16.107v0.537h-16.107v-0.537z" fill="#fa5e5e"/>
 <path d="m9.892 15.785h7.946v0.537h-7.946v-0.537z" fill="#ffca74"/>
 <path d="m18.375 15.785h10.309v0.537h-10.309v-0.537z" fill="#fa5e5e"/>
 <path d="m12.039 11.49h3.758v0.537h-3.758v-0.537zm0 6.443h3.758v0.537h-3.758v-0.537zm2.685 2.148h5.691v0.537h-5.691v-0.537z" fill="#00838f"/>
 <path d="m16.335 11.49h10.738v0.537h-10.738v-0.537zm0 6.443h10.738v0.537h-10.738v-0.537z" fill="#9ccc65"/>
 <path d="m20.952 20.081h6.121v0.537h-6.121v-0.537z" fill="#fa5e5e"/>
 <path d="m27.61 11.49h2.148v0.537h-2.148v-0.537z" fill="#ffca74"/>
 <path d="m27.61 20.081h2.148v0.537h-2.148v-0.537z" fill="#00838f"/>
 <path d="m12.039 20.081h2.148v0.537h-2.148v-0.537z" fill="#ffca74"/>
 <path d="m6.133 11.49h3.758v0.537h-3.758v-0.537zm0 2.148h3.758v0.537h-3.758v-0.537z" fill="#828282"/>
 <path d="m3.986 15.785h3.758v0.537h-3.758v-0.537z" fill="#424242"/>
 <path d="m6.133 17.933h3.758v0.537h-3.758v-0.537zm0 2.148h3.758v0.537h-3.758v-0.537z" fill="#828282"/>
</svg>
