<svg  xmlns="http://www.w3.org/2000/svg" xmlns:svg="http://www.w3.org/2000/svg" xmlns:xlink="http://www.w3.org/1999/xlink" viewBox="0 0 41 32" class="icon-svg" aria-label="Large Engineering">
  <path fill="#424242" d="M3.984 31.248h35.221v-28.242h-35.221v28.242zM3.769 2.792h35.651v28.671h-35.651v-28.671z"></path>
  <path fill="#fff" d="M2.91 3.544h34.362v26.201h-34.362v-26.201z"></path>
  <path fill="#f5f5f5" d="M1.621 6.121h35.651v23.517h-35.651v-23.517z"></path>
  <path fill="#424242" d="M40.279 0.752v-0.215h-39.732v29.208h0.215v-1.181h35.436v-23.517h1.933v-0.215h-1.933v-4.081h4.081zM35.984 28.349h-35.221v-23.302h35.221v23.302z"></path>
  <path fill="#fff" d="M3.984 2.792c0 .297-.24.537-.537.537s-.537-.24-.537-.537c0-.297.24-.537.537-.537s.537.24.537.537zM8.279 2.792c0 .297-.24.537-.537.537s-.537-.24-.537-.537c0-.297.24-.537.537-.537s.537.24.537.537zM6.132 2.792c0 .297-.24.537-.537.537s-.537-.24-.537-.537c0-.297.24-.537.537-.537s.537.24.537.537z"></path>
  <path fill="#424242" d="M3.986 9.342h3.758v0.537h-3.758v-0.537z"></path>
  <path fill="#ffca74" d="M9.892 9.342h12.886v0.537h-12.886v-0.537z"></path>
  <path fill="#fa5e5e" d="M12.039 13.638h16.107v0.537h-16.107v-0.537z"></path>
  <path fill="#ffca74" d="M9.892 15.785h7.946v0.537h-7.946v-0.537z"></path>
  <path fill="#fa5e5e" d="M18.375 15.785h10.309v0.537h-10.309v-0.537z"></path>
  <path fill="#00838f" d="M12.039 11.49h3.758v.537h-3.758v-.537zM12.039 17.933h3.758v.537h-3.758v-.537zM14.724 20.081h5.691v.537h-5.691v-.537z"></path>
  <path fill="#9ccc65" d="M16.335 11.49h10.738v.537h-10.738v-.537zM16.335 17.933h10.738v.537h-10.738v-.537z"></path>
  <path fill="#fa5e5e" d="M20.952 20.081h6.121v0.537h-6.121v-0.537z"></path>
  <path fill="#ffca74" d="M27.61 11.49h2.148v0.537h-2.148v-0.537z"></path>
  <path fill="#00838f" d="M27.61 20.081h2.148v0.537h-2.148v-0.537z"></path>
  <path fill="#ffca74" d="M12.039 20.081h2.148v0.537h-2.148v-0.537z"></path>
  <path fill="#828282" d="M6.133 11.49h3.758v.537h-3.758v-.537zM6.133 13.638h3.758v.537h-3.758v-.537z"></path>
  <path fill="#424242" d="M3.986 15.785h3.758v0.537h-3.758v-0.537z"></path>
  <path fill="#828282" d="M6.133 17.933h3.758v.537h-3.758v-.537zM6.133 20.081h3.758v.537h-3.758v-.537z"></path>
</svg>