<svg  xmlns="http://www.w3.org/2000/svg" xmlns:svg="http://www.w3.org/2000/svg" xmlns:xlink="http://www.w3.org/1999/xlink" viewBox="0 0 56 32" class="icon-svg" aria-label="Large Design">
  <path fill="#fff" d="M2.332 23.579v-15.028h24.615v15.028h-24.615z"></path>
  <path fill="#f5f5f5" d="M3.628 24.875v-15.028h24.615v15.028z"></path>
  <path fill="#424242" d="M1.425 23.709c-.429 0-.777-.348-.777-.778v-13.732c0-.43.347-.778.777-.778h27.595c.429 0 .777.348.777.778v13.732c0 .43-.347.778-.777.778h-27.595zM26.791 23.308v-14.487h-24.138v14.487h24.138zM32.793.648c7.727 0 13.992 6.264 13.992 13.992s-6.264 13.992-13.992 13.992c-.787 0-1.559-.065-2.311-.19l.042-.256c.745.124 1.503.186 2.269.186 7.584 0 13.733-6.148 13.733-13.733s-6.148-13.733-13.733-13.733c-.778 0-1.549.065-2.305.193l-.043-.256c.763-.129 1.548-.196 2.348-.196zM32.793.648c7.727 0 13.992 6.264 13.992 13.992 0 2.844-.849 5.49-2.307 7.699-.872 1.321-1.963 2.486-3.22 3.443-2.35 1.789-5.284 2.851-8.466 2.851-.787 0-1.559-.065-2.311-.19l.042-.256c.745.124 1.503.186 2.269.186 3.123 0 6.003-1.043 8.31-2.799 3.296-2.508 5.423-6.473 5.423-10.934 0-7.584-6.148-13.733-13.733-13.733-.778 0-1.549.065-2.305.193l-.043-.256c.763-.129 1.548-.196 2.348-.196z"></path>
  <path fill="#fff" d="M8.032 4.534h18.267v22.931h-18.267v-22.931z"></path>
  <path fill="#f5f5f5" d="M9.717 6.089h18.267v22.931h-18.267v-22.931z"></path>
  <path fill="#424242" d="M8.032 27.466h18.397v-24.356h-18.397v24.356zM7.773 2.85h18.915v24.875h-18.915v-24.875z"></path>
  <path fill="#424242" d="M8.032 2.98h18.656v1.425h-18.656v-1.425z"></path>
  <path fill="#ffca74" d="M9.328 7.32h10.883v4.016h-10.883v-4.016z"></path>
  <path fill="#fa5e5e" d="M9.328 13.474h4.794v4.016h-4.794v-4.016z"></path>
  <path fill="#424242" d="M9.328 19.822h4.794v.259h-4.794v-.259zM9.328 21.117h6.089v.259h-6.089v-.259zM9.328 22.413h7.125v.259h-7.125v-.259zM7.773 3.109h22.024v-.259h-22.024v.259zM11.142 4.405h16.842v-.259h-16.842v.259zM8.032 28.632v-22.024h-.259v22.024h.259z"></path>
  <path fill="#ffca74" d="M43.012 5.312h3.239v3.239h-3.239v-3.239z"></path>
  <path fill="#424242" d="M43.271 8.291h2.721v-2.721h-2.721v2.721zM43.012 5.312h3.239v3.239h-3.239v-3.239z"></path>
  <path fill="#fa5e5e" d="M39.773 2.591h2.332v2.332h-2.332v-2.332z"></path>
  <path fill="#424242" d="M40.032 2.85v1.814h1.814v-1.814h-1.814zM39.773 2.591h2.332v2.332h-2.332v-2.332z"></path>
  <path fill="#9ccc65" d="M36.923 1.296h1.425v1.425h-1.425v-1.425z"></path>
  <path fill="#424242" d="M37.182 2.462h0.907v-0.907h-0.907v0.907zM36.923 1.296h1.425v1.425h-1.425v-1.425z"></path>
  <path fill="#fff" d="M21.636 7.385h9.717v15.935h-9.717v-15.935z"></path>
  <path fill="#424242" d="M21.636 7.127c0-0.431 0.348-0.779 0.779-0.779h8.159c0.43 0 0.779 0.348 0.779 0.779v17.099c0 0.431-0.348 0.779-0.779 0.779h-8.159c-0.43 0-0.779-0.349-0.779-0.779v-17.099zM21.895 23.061h9.198v-15.417h-9.198v15.417z"></path>
  <path fill="#f5f5f5" d="M22.543 8.68h8.551v14.381h-8.551zM31.352 8.68h.907v15.676h-.907z"></path>
  <path fill="#fff" d="M43.401 12.178h6.478v6.478h-6.478v-6.478z"></path>
  <path fill="#fa5e5e" d="M44.696 13.279c0 .107-.087.194-.194.194s-.194-.087-.194-.194c0-.107.087-.194.194-.194s.194.087.194.194zM46.121 13.279c0 .107-.087.194-.194.194s-.194-.087-.194-.194c0-.107.087-.194.194-.194s.194.087.194.194zM47.547 13.279c0 .107-.087.194-.194.194s-.194-.087-.194-.194c0-.107.087-.194.194-.194s.194.087.194.194zM48.972 13.279c0 .107-.087.194-.194.194s-.194-.087-.194-.194c0-.107.087-.194.194-.194s.194.087.194.194zM44.696 14.575c0 .107-.087.194-.194.194s-.194-.087-.194-.194c0-.107.087-.194.194-.194s.194.087.194.194zM46.121 14.575c0 .107-.087.194-.194.194s-.194-.087-.194-.194c0-.107.087-.194.194-.194s.194.087.194.194zM47.547 14.575c0 .107-.087.194-.194.194s-.194-.087-.194-.194c0-.107.087-.194.194-.194s.194.087.194.194zM48.972 14.575c0 .107-.087.194-.194.194s-.194-.087-.194-.194c0-.107.087-.194.194-.194s.194.087.194.194zM44.696 15.87c0 .107-.087.194-.194.194s-.194-.087-.194-.194c0-.107.087-.194.194-.194s.194.087.194.194zM48.972 15.87c0 .107-.087.194-.194.194s-.194-.087-.194-.194c0-.107.087-.194.194-.194s.194.087.194.194zM44.696 17.166c0 .107-.087.194-.194.194s-.194-.087-.194-.194c0-.107.087-.194.194-.194s.194.087.194.194zM48.972 17.166c0 .107-.087.194-.194.194s-.194-.087-.194-.194c0-.107.087-.194.194-.194s.194.087.194.194z"></path>
  <path fill="#424242" d="M43.66 18.397h5.959v-5.96h-5.959v5.96zM43.401 12.178h6.478v6.478h-6.478v-6.478z"></path>
  <path fill="#fff" d="M43.57 28.175c-0.084-0.158-0.168-0.32-0.252-0.484-0.552-1.076-1.086-2.229-1.583-3.382-0.174-0.403-0.331-0.778-0.468-1.114-0.048-0.118-0.090-0.222-0.126-0.313-0.022-0.054-0.036-0.092-0.042-0.107-0.069-0.159-0.018-0.344 0.12-0.449 0.734-0.557 1.51-0.63 2.137-0.072 0.285 0.254 0.503 0.623 0.787 1.253 0.010 0.022 0.214 0.485 0.272 0.609 0.092 0.197 0.169 0.345 0.245 0.462 0.083 0.13 0.198 0.22 0.324 0.253 0.314 0.082 0.543-0.191 0.515-0.555v-7.7c0-0.675 0.54-1.291 1.269-1.291 0.778 0 1.242 0.475 1.242 1.249l-0.003 3.734c-0 0.293 0.206 0.547 0.495 0.608l4.815 1.021c0.974 0.231 1.284 1.364 1.218 3.272-0.041 1.198-0.321 2.475-0.762 3.754-0.167 0.486-0.347 0.938-0.526 1.346-0.063 0.143-0.121 0.27-0.174 0.379-0.018 0.038-0.035 0.072-0.049 0.101-0.009 0.017-0.025 0.048-0.025 0.048-0.221 0.332-0.609 0.524-0.995 0.524l-5.777 0.028c-0.234 0-0.408-0.021-0.608-0.106-0.171-0.073-0.318-0.183-0.434-0.337-0.181-0.158-0.641-0.896-1.615-2.733z"></path>
  <path fill="#424242" d="M43.57 28.175c-0.084-0.158-0.168-0.32-0.252-0.484-0.552-1.076-1.086-2.229-1.583-3.382-0.174-0.403-0.331-0.778-0.468-1.114-0.048-0.118-0.090-0.222-0.126-0.313-0.022-0.054-0.036-0.092-0.042-0.107-0.069-0.159-0.018-0.344 0.12-0.449 0.734-0.557 1.51-0.63 2.137-0.072 0.285 0.254 0.503 0.623 0.787 1.253 0.010 0.022 0.214 0.485 0.272 0.609 0.092 0.197 0.169 0.345 0.245 0.462 0.083 0.13 0.198 0.22 0.324 0.253 0.314 0.082 0.543-0.191 0.515-0.555v-7.7c0-0.675 0.54-1.291 1.269-1.291 0.778 0 1.242 0.475 1.242 1.249l-0.003 3.734c-0 0.293 0.206 0.547 0.495 0.608l4.815 1.021c0.974 0.231 1.284 1.364 1.218 3.272-0.041 1.198-0.321 2.475-0.762 3.754-0.167 0.486-0.347 0.938-0.526 1.346-0.063 0.143-0.121 0.27-0.174 0.379-0.018 0.038-0.035 0.072-0.049 0.101-0.009 0.017-0.025 0.048-0.025 0.048-0.221 0.332-0.609 0.524-0.995 0.524l-5.777 0.028c-0.234 0-0.408-0.021-0.608-0.106-0.171-0.073-0.318-0.183-0.434-0.337-0.181-0.158-0.641-0.896-1.615-2.733zM48.447 21.132c-0.409-0.086-0.701-0.446-0.7-0.862l0.003-3.734c0-0.632-0.349-0.989-0.982-0.989-0.578 0-1.010 0.492-1.010 1.032l-0 7.69c0.040 0.512-0.327 0.949-0.839 0.816-0.194-0.050-0.36-0.182-0.477-0.364-0.083-0.13-0.165-0.286-0.262-0.493-0.059-0.127-0.265-0.593-0.274-0.612-0.269-0.598-0.473-0.944-0.723-1.166-0.522-0.465-1.163-0.405-1.807 0.084-0.044 0.033-0.060 0.091-0.037 0.144 0.007 0.019 0.022 0.056 0.043 0.109 0.036 0.090 0.078 0.193 0.125 0.311 0.136 0.335 0.292 0.708 0.465 1.11 0.495 1.148 1.027 2.296 1.576 3.366 0.084 0.163 0.167 0.323 0.251 0.481 0.602 1.136 1.029 1.884 1.309 2.319 0.096 0.149 0.167 0.249 0.216 0.307 0.015 0.018 0.025 0.029 0.031 0.034 0.117 0.15 0.23 0.236 0.364 0.293 0.161 0.068 0.306 0.086 0.507 0.086l5.777-0.028c0.3 0 0.604-0.149 0.776-0.403 0.012-0.024 0.033-0.065 0.060-0.123 0.051-0.107 0.109-0.232 0.17-0.372 0.177-0.401 0.353-0.847 0.518-1.326 0.433-1.257 0.708-2.509 0.748-3.678 0.061-1.786-0.221-2.821-1.014-3.010l-4.814-1.021z"></path>
  <path fill="#fff" d="M35.757 12.178h6.478v6.478h-6.478v-6.478z"></path>
  <path fill="#fa5e5e" d="M28.113 12.178h6.478v6.478h-6.478v-6.478z"></path>
  <path fill="#424242" d="M28.372 18.397h5.96v-5.96h-5.959v5.96zM28.113 12.178h6.478v6.478h-6.478v-6.478z"></path>
  <path fill="#fa5e5e" d="M35.932 15.633l3.36-3.36.442-.076-3.878 3.878zM35.757 18.397l6.089-6.089.183.183-6.089 6.089zM38.219 18.526l3.887-3.887-.071.437-3.505 3.505z"></path>
  <path fill="#424242" d="M36.016 18.397h5.959v-5.96h-5.959v5.96zM35.757 12.178h6.478v6.478h-6.478v-6.478z"></path>
</svg>