<svg  xmlns="http://www.w3.org/2000/svg" xmlns:svg="http://www.w3.org/2000/svg" xmlns:xlink="http://www.w3.org/1999/xlink" viewBox="0 0 47 32" class="icon-svg" aria-label="Large Support">
  <path fill="#424242" d="M44.8 24.86c-.022 0-.044 0-.054-.011-.054-.033-.065-.098-.033-.152.054-.087.109-.185.152-.272.033-.054.098-.076.152-.044s.076.098.044.152c-.054.098-.109.185-.163.283-.033.022-.065.044-.098.044zM45.268 23.913c-.011 0-.033 0-.044-.011-.054-.022-.076-.087-.054-.142.044-.098.076-.185.12-.294.022-.054.087-.087.142-.065s.087.087.065.142c-.044.109-.076.207-.12.294-.022.054-.065.076-.109.076zM45.616 22.922c-.011 0-.022 0-.033 0-.054-.022-.087-.076-.076-.131.033-.098.054-.196.076-.305.011-.054.076-.098.131-.076.054.011.098.076.076.131-.022.109-.054.207-.076.316 0 .033-.044.065-.098.065zM45.845 21.888c-.011 0-.011 0-.022 0-.054-.011-.098-.065-.087-.12.022-.098.033-.207.044-.316.011-.054.065-.098.12-.098.054.011.098.065.098.12-.011.109-.033.218-.044.316-.011.054-.054.098-.109.098zM45.965 20.833c-.011 0-.011 0 0 0-.065 0-.109-.054-.109-.12.011-.098.011-.207.011-.316 0-.054.054-.109.109-.109 0 0 0 0 0 0 .065 0 .109.054.109.109 0 .109-.011.218-.011.316-.011.076-.054.12-.109.12zM45.965 19.777c-.054 0-.109-.044-.109-.098-.011-.109-.011-.207-.022-.316-.011-.054.033-.109.098-.12s.109.033.12.098c.011.109.022.218.033.327-.011.054-.054.109-.12.109 0 0 0 0 0 0zM45.812 18.732c-.054 0-.098-.033-.109-.087-.022-.098-.044-.207-.076-.305-.011-.054.022-.12.076-.131s.12.022.131.076c.022.109.054.207.076.316.011.054-.022.12-.087.131.011 0 0 0-.011 0zM45.529 17.709c-.044 0-.087-.033-.098-.076-.033-.098-.076-.196-.109-.294-.022-.054 0-.12.054-.142s.12 0 .142.054c.044.098.076.196.12.305.022.054-.011.12-.065.142-.022.011-.033.011-.044.011zM45.105 16.74c-.044 0-.076-.022-.098-.054-.044-.087-.098-.185-.152-.272-.033-.054-.011-.12.044-.152s.12-.011.152.044c.054.098.109.185.152.283.033.054.011.12-.044.142-.022.011-.044.011-.054.011zM44.561 15.837c-.033 0-.065-.022-.087-.044-.054-.087-.12-.174-.185-.25-.033-.044-.022-.12.022-.152s.12-.022.152.022c.065.087.131.174.185.261.033.054.022.12-.033.152-.011.011-.033.011-.054.011zM43.907 15.01c-.033 0-.054-.011-.076-.033-.065-.076-.142-.152-.218-.229-.044-.044-.044-.109 0-.152s.109-.044.152 0c.076.076.152.152.218.239.044.044.033.109-.011.152-.022.011-.044.022-.065.022zM43.146 14.269c-.022 0-.054-.011-.076-.022-.076-.065-.163-.131-.239-.196-.044-.033-.054-.109-.022-.152s.109-.054.152-.022c.087.065.163.142.25.207.044.044.054.109.011.152-.011.022-.044.033-.076.033zM42.307 13.627c-.022 0-.044-.011-.065-.022-.087-.054-.174-.109-.261-.174-.054-.033-.065-.098-.033-.152s.098-.065.152-.033c.087.054.185.109.272.174.054.033.065.098.033.152-.022.033-.065.054-.098.054zM41.393 13.094c-.022 0-.033 0-.044-.011-.098-.044-.185-.087-.283-.131-.054-.022-.076-.087-.054-.142s.087-.076.142-.054c.098.044.196.087.294.142.054.022.076.087.044.142-.011.033-.054.054-.098.054zM40.425 12.68c-.011 0-.022 0-.033-.011-.098-.033-.196-.065-.294-.098-.054-.022-.087-.076-.076-.142.022-.054.076-.087.142-.076.098.033.207.065.305.098.054.022.087.087.065.142s-.065.087-.109.087zM39.412 12.386c-.011 0-.011 0-.022 0-.098-.022-.207-.044-.305-.065-.054-.011-.098-.065-.087-.131.011-.054.065-.098.131-.087.109.022.207.044.316.065.054.011.098.076.087.131-.033.054-.076.087-.12.087zM44.267 25.6c-.022 0-.054-.011-.076-.033-.044-.044-.044-.109 0-.152 0 0 .044-.044.098-.12.033-.044.109-.054.152-.011.044.033.054.109.011.152-.076.087-.109.131-.109.131-.022.022-.054.033-.076.033zM8.283 19.189c-.011 0-.011 0 0 0-.065 0-.12-.011-.174-.011-.054-.011-.109-.054-.098-.12s.054-.098.12-.098c.054 0 .109.011.163.011.065 0 .109.054.098.12-.011.054-.054.098-.109.098zM7.38 19.08c0 0-.011 0-.011 0-.109-.011-.218-.033-.316-.054-.054-.011-.098-.065-.087-.131.011-.054.065-.098.131-.087.098.022.207.033.316.054.054.011.098.065.087.12-.022.065-.065.098-.12.098zM6.335 18.884c-.011 0-.022 0-.022 0-.109-.022-.207-.054-.316-.076-.054-.011-.098-.076-.076-.131.011-.054.076-.087.131-.076.098.022.207.054.305.076.054.011.098.076.076.131 0 .044-.054.076-.098.076zM5.312 18.59c-.011 0-.022 0-.033-.011-.098-.033-.207-.076-.305-.109-.054-.022-.087-.087-.065-.142s.087-.087.141-.065c.098.033.196.076.294.109.054.022.087.076.065.142-.011.044-.054.076-.098.076zM4.332 18.199c-.011 0-.033 0-.044-.011-.098-.044-.196-.098-.294-.142-.054-.033-.076-.098-.044-.142.033-.054.098-.076.141-.044.087.044.185.098.283.142.054.022.076.087.054.142-.022.022-.065.054-.098.054zM3.407 17.676c-.022 0-.044-.011-.054-.022-.087-.054-.185-.12-.261-.185-.044-.033-.054-.098-.022-.152.033-.044.098-.054.152-.022.087.065.174.12.261.174.054.033.065.098.033.152-.044.033-.076.054-.109.054zM2.569 17.023c-.022 0-.054-.011-.076-.033-.076-.076-.163-.152-.229-.229-.044-.044-.044-.109 0-.152s.109-.044.152 0c.076.076.152.142.229.218.044.044.044.109.011.152-.033.033-.065.044-.087.044zM1.85 16.239c-.033 0-.065-.011-.087-.044-.065-.087-.131-.174-.185-.261-.033-.054-.022-.12.033-.152s.12-.022.152.033c.054.087.12.174.185.25.033.044.022.12-.022.152-.033.022-.054.022-.076.022zM1.295 15.336c-.044 0-.076-.022-.098-.065-.044-.098-.098-.196-.131-.294-.022-.054 0-.12.054-.142s.12 0 .141.054c.044.098.087.196.131.283.022.054 0 .12-.054.142-.011.022-.033.022-.044.022zM.914 14.346c-.044 0-.087-.033-.109-.076-.033-.098-.054-.207-.076-.316-.011-.054.022-.12.087-.131.054-.011.12.022.131.087.022.098.044.207.076.305.011.054-.022.12-.076.131-.011 0-.022 0-.033 0zM.718 13.301c-.054 0-.098-.044-.109-.098-.011-.109-.022-.218-.022-.327 0-.065.044-.109.098-.109s.109.044.109.098c0 .109.011.207.022.316.022.065-.022.12-.098.12.011 0 .011 0 0 0zM.697 12.245c0 0 0 0 0 0-.065 0-.109-.054-.109-.109 0-.109.011-.218.022-.327 0-.054.054-.098.12-.098.054 0 .109.054.098.12-.011.098-.022.207-.022.316 0 .054-.044.098-.109.098zM.827 11.189c-.011 0-.011 0-.022 0-.054-.011-.098-.065-.087-.131.022-.109.044-.218.065-.316.011-.054.076-.098.131-.076.054.011.098.076.076.131-.022.098-.044.207-.065.305 0 .054-.054.087-.098.087zM1.099 10.166c-.011 0-.022 0-.033-.011-.054-.022-.087-.087-.065-.142.033-.098.076-.207.109-.305.022-.054.087-.087.141-.065s.087.087.065.142c-.033.098-.076.196-.109.294-.022.054-.065.087-.109.087zM1.524 9.197c-.022 0-.033 0-.054-.011-.054-.033-.076-.098-.044-.152.054-.098.109-.185.163-.283.033-.054.098-.065.152-.033s.065.098.033.152c-.054.087-.109.185-.152.272-.022.033-.065.054-.098.054zM2.112 8.305c-.022 0-.054-.011-.065-.022-.044-.044-.054-.109-.011-.152.076-.087.109-.131.109-.131.044-.044.109-.044.152 0s.044.109 0 .152c0 0-.044.044-.098.12-.022.011-.054.033-.087.033z"></path>
  <path fill="#fff" d="M23.619 0.98v6.095c0 0.12 0.098 0.218 0.218 0.218h16.98c0.12 0 0.218-0.098 0.218-0.218v-6.095c0-0.12-0.098-0.218-0.218-0.218h-16.98c-0.12 0-0.218 0.098-0.218 0.218z"></path>
  <path fill="#424242" d="M23.619 0.98v6.095c0 0.12 0.098 0.218 0.218 0.218h16.98c0.12 0 0.218-0.098 0.218-0.218v-6.095c0-0.12-0.098-0.218-0.218-0.218h-16.98c-0.12 0-0.218 0.098-0.218 0.218zM23.401 0.98c0-0.239 0.196-0.435 0.435-0.435h16.98c0.239 0 0.435 0.196 0.435 0.435v6.095c0 0.239-0.196 0.435-0.435 0.435h-16.98c-0.239 0-0.435-0.196-0.435-0.435v-6.095z"></path>
  <path fill="#00838f" d="M25.796 2.83h11.973v.218h-11.973v-.218zM25.796 3.918h13.061v.218h-13.061v-.218zM25.796 5.007h10.884v.218h-10.884v-.218z"></path>
  <path fill="#fff" d="M8.49 5.986h27.418v21.551h-27.418v-21.551z"></path>
  <path fill="#f5f5f5" d="M9.742 10.449h27.211v18.068h-27.211v-18.068z"></path>
  <path fill="#424242" d="M8.49 5.986h27.32v3.374h-27.32v-3.374z"></path>
  <path fill="#fff" d="M10.34 7.673c0 .15-.122.272-.272.272s-.272-.122-.272-.272c0-.15.122-.272.272-.272s.272.122.272.272zM12.299 7.673c0 .15-.122.272-.272.272s-.272-.122-.272-.272c0-.15.122-.272.272-.272s.272.122.272.272zM11.32 7.673c0 .15-.122.272-.272.272s-.272-.122-.272-.272c0-.15.122-.272.272-.272s.272.122.272.272z"></path>
  <path fill="#424242" d="M10.775 11.537h3.81v0.544h-3.81v-0.544z"></path>
  <path fill="#bcbcbc" d="M16.762 11.537h13.061v0.544h-13.061v-0.544z"></path>
  <path fill="#bbb" d="M16.762 18.068h8.054v.544h-8.054v-.544zM18.939 13.714h3.81v.544h-3.81v-.544zM18.939 20.245h3.81v.544h-3.81v-.544zM21.66 22.422h5.769v.544h-5.769v-.544zM23.293 13.714h10.884v.544h-10.884v-.544zM23.293 20.245h10.884v.544h-10.884v-.544zM18.939 22.422h2.177v.544h-2.177v-.544z"></path>
  <path fill="#424242" d="M12.952 13.714h3.81v.544h-3.81v-.544zM10.775 18.068h3.81v.544h-3.81v-.544zM12.952 20.245h3.81v.544h-3.81v-.544zM12.952 22.422h3.81v.544h-3.81v-.544z"></path>
  <path fill="#bbb" d="M16.762 15.891h5.986v0.544h-5.986v-0.544z"></path>
  <path fill="#424242" d="M10.775 15.891h3.81v0.544h-3.81v-0.544z"></path>
  <path fill="#424242" d="M8.707 27.32h26.982v-21.116h-26.982v21.116zM8.49 5.986h27.418v21.551h-27.418v-21.551z"></path>
  <path fill="#9ccc65" d="M32.435 24.925h10.558c1.382 0 2.503 1.121 2.503 2.503v0c0 1.382-1.121 2.503-2.503 2.503h-10.558c-1.382 0-2.503-1.121-2.503-2.503v0c0-1.382 1.121-2.503 2.503-2.503z"></path>
  <path fill="#424242" d="M29.932 27.429c0 1.382 1.121 2.503 2.503 2.503h10.558c1.382 0 2.503-1.121 2.503-2.503s-1.121-2.503-2.503-2.503h-10.558c-1.382 0-2.503 1.121-2.503 2.503zM29.714 27.429c0-1.502 1.219-2.721 2.721-2.721h10.558c1.502 0 2.721 1.219 2.721 2.721s-1.219 2.721-2.721 2.721h-10.558c-1.502 0-2.721-1.219-2.721-2.721z"></path>
  <path fill="#fff" d="M32.653 28.571c.599 0 1.088-.49 1.088-1.088s-.49-1.088-1.088-1.088-1.088.49-1.088 1.088.49 1.088 1.088 1.088zM32.653 28.789c-.718 0-1.306-.588-1.306-1.306s.588-1.306 1.306-1.306 1.306.588 1.306 1.306-.588 1.306-1.306 1.306zM34.721 27.592h8.707c.087 0 .163-.076.163-.163s-.076-.163-.163-.163h-8.707c-.087 0-.163.076-.163.163s.076.163.163.163z"></path>
  <path fill="#9ccc65" d="M3.265 3.592h10.558c1.382 0 2.503 1.121 2.503 2.503v0c0 1.382-1.121 2.503-2.503 2.503h-10.558c-1.382 0-2.503-1.121-2.503-2.503v0c0-1.382 1.121-2.503 2.503-2.503z"></path>
  <path fill="#424242" d="M0.762 6.095c0 1.382 1.121 2.503 2.503 2.503h10.558c1.382 0 2.503-1.121 2.503-2.503s-1.121-2.503-2.503-2.503h-10.558c-1.382 0-2.503 1.121-2.503 2.503zM0.544 6.095c0-1.502 1.219-2.721 2.721-2.721h10.558c1.502 0 2.721 1.219 2.721 2.721s-1.219 2.721-2.721 2.721h-10.558c-1.502 0-2.721-1.219-2.721-2.721z"></path>
  <path fill="#fff" d="M3.483 7.238c.599 0 1.088-.49 1.088-1.088s-.49-1.088-1.088-1.088-1.088.49-1.088 1.088.49 1.088 1.088 1.088zM3.483 7.456c-.718 0-1.306-.588-1.306-1.306s.588-1.306 1.306-1.306 1.306.588 1.306 1.306-.588 1.306-1.306 1.306zM5.551 6.258h8.707c.087 0 .163-.076.163-.163s-.076-.163-.163-.163h-8.707c-.087 0-.163.076-.163.163s.076.163.163.163z"></path>
  <path fill="#fa5e5e" d="M38.422 11.592c0 1.473-1.194 2.667-2.667 2.667s-2.667-1.194-2.667-2.667c0-1.473 1.194-2.667 2.667-2.667s2.667 1.194 2.667 2.667z"></path>
  <path fill="#424242" d="M35.755 14.041c1.35 0 2.449-1.099 2.449-2.449s-1.099-2.449-2.449-2.449-2.449 1.099-2.449 2.449 1.099 2.449 2.449 2.449zM35.755 14.258c-1.469 0-2.667-1.197-2.667-2.667s1.197-2.667 2.667-2.667 2.667 1.197 2.667 2.667-1.197 2.667-2.667 2.667z"></path>
  <path fill="#fff" d="M35.897 12.038h-0.294v-1.524h0.294v1.524zM35.559 12.473c0-0.054 0.022-0.098 0.054-0.142 0.044-0.044 0.087-0.054 0.142-0.054s0.098 0.022 0.142 0.054c0.044 0.044 0.054 0.087 0.054 0.142s-0.022 0.098-0.054 0.142c-0.044 0.044-0.087 0.054-0.142 0.054s-0.098-0.022-0.142-0.054c-0.044-0.044-0.054-0.087-0.054-0.142z"></path>
  <path fill="#ffca74" d="M11.211 18.34c0 1.473-1.194 2.667-2.667 2.667s-2.667-1.194-2.667-2.667c0-1.473 1.194-2.667 2.667-2.667s2.667 1.194 2.667 2.667z"></path>
  <path fill="#424242" d="M8.544 20.789c1.35 0 2.449-1.099 2.449-2.449s-1.099-2.449-2.449-2.449-2.449 1.099-2.449 2.449 1.099 2.449 2.449 2.449zM8.544 21.007c-1.469 0-2.667-1.197-2.667-2.667s1.197-2.667 2.667-2.667 2.667 1.197 2.667 2.667-1.197 2.667-2.667 2.667z"></path>
  <path fill="#fff" d="M8.446 18.841v-.185c0-.054 0-.098.011-.142.011-.033.022-.076.033-.098.022-.033.044-.054.065-.087.033-.033.065-.065.109-.098.033-.033.065-.065.098-.098s.065-.065.087-.098c.022-.033.054-.065.065-.109.022-.044.022-.076.022-.131 0-.044-.011-.087-.022-.131-.022-.044-.044-.076-.065-.109-.033-.033-.065-.054-.109-.065-.044-.022-.087-.022-.131-.022-.098 0-.185.033-.25.098s-.098.152-.109.25l-.305-.044c.022-.185.098-.327.229-.424.12-.098.272-.152.457-.152.087 0 .163.011.239.044.076.022.142.065.196.109s.098.109.131.185.044.152.044.239c0 .076-.011.152-.033.207s-.054.12-.098.163l-.185.196-.033.033c-.033.033-.054.054-.076.076s-.033.044-.044.065c-.011.022-.022.054-.022.076 0 .033-.011.065-.011.109v.142h-.294zM8.392 19.265c0-.054.022-.109.065-.142s.087-.065.142-.065.109.022.142.065c.044.044.065.087.065.142s-.022.109-.065.142c-.044.044-.087.065-.142.065s-.109-.022-.142-.065c-.044-.033-.065-.087-.065-.142zM3.483 24.707h16.98c.12 0 .218.098.218.218v6.095c0 .12-.098.218-.218.218h-16.98c-.12 0-.218-.098-.218-.218v-6.095c0-.12.098-.218.218-.218z"></path>
  <path fill="#424242" d="M3.265 24.925v6.095c0 0.12 0.098 0.218 0.218 0.218h16.98c0.12 0 0.218-0.098 0.218-0.218v-6.095c0-0.12-0.098-0.218-0.218-0.218h-16.98c-0.12 0-0.218 0.098-0.218 0.218zM3.048 24.925c0-0.239 0.196-0.435 0.435-0.435h16.98c0.239 0 0.435 0.196 0.435 0.435v6.095c0 0.239-0.196 0.435-0.435 0.435h-16.98c-0.239 0-0.435-0.196-0.435-0.435v-6.095z"></path>
  <path fill="#00838f" d="M5.442 26.776h13.061v.218h-13.061v-.218zM5.442 27.864h11.973v.218h-11.973v-.218zM5.442 28.952h6.531v.218h-6.531v-.218z"></path>
</svg>