<svg  xmlns="http://www.w3.org/2000/svg" xmlns:svg="http://www.w3.org/2000/svg" xmlns:xlink="http://www.w3.org/1999/xlink" viewBox="0 0 44 32" class="icon-svg" aria-label="Large Technology">
  <path fill="#e8e8e8" d="M6.158 26.392h24.962v0.88h-24.962v-0.88z"></path>
  <path fill="#424242" d="M6.378 27.052h24.522v-0.44h-24.522v0.44zM6.158 26.392h24.962v0.88h-24.962v-0.88z"></path>
  <path fill="#f5f5f5" d="M8.357 13.196c0-0.243 0.197-0.44 0.439-0.44h22.323v14.515h-22.103c-0.364 0-0.66-0.295-0.66-0.659v-13.416z"></path>
  <path fill="#424242" d="M30.9 12.976h-22.104c-0.121 0-0.22 0.099-0.22 0.22v13.416c0 0.243 0.197 0.439 0.44 0.439h21.883v-14.076zM8.357 13.196c0-0.243 0.197-0.44 0.439-0.44h22.323v14.515h-22.103c-0.364 0-0.66-0.295-0.66-0.659v-13.416z"></path>
  <path fill="#f5f5f5" d="M31.12 8.907h0.88v8.357h-0.88v-8.357z"></path>
  <path fill="#ffca74" d="M32.81 8.028l0.339 0.339c0.042 0.042 0.042 0.112-0 0.154l-0.546 0.546c-0.043 0.043-0.112 0.043-0.154 0l-0.412-0.412-0.071 0.037c-0.121 0.062-0.248 0.111-0.38 0.147l-0.081 0.022v0.598c0 0.060-0.049 0.109-0.109 0.109h-0.772c-0.060 0-0.109-0.049-0.109-0.109v-0.626l-0.075-0.025c-0.119-0.040-0.234-0.091-0.343-0.152l-0.073-0.041-0.059 0.059-0.394 0.394c-0.042 0.042-0.112 0.042-0.154-0l-0.546-0.546c-0.043-0.043-0.043-0.112-0-0.154l0.467-0.467-0.037-0.071c-0.054-0.105-0.098-0.215-0.132-0.328l-0.024-0.078h-0.666c-0.060 0-0.109-0.049-0.109-0.109v-0.772c0-0.060 0.049-0.109 0.109-0.109h0.666l0.024-0.078c0.034-0.113 0.078-0.223 0.132-0.328l0.037-0.071-0.467-0.467c-0.042-0.042-0.042-0.112 0-0.154l0.546-0.546c0.043-0.043 0.111-0.043 0.154-0l0.453 0.453 0.073-0.041c0.109-0.061 0.224-0.112 0.343-0.152l0.075-0.025v-0.626c0-0.060 0.049-0.109 0.109-0.109h0.772c0.060 0 0.109 0.049 0.109 0.109v0.598l0.081 0.022c0.132 0.036 0.259 0.085 0.38 0.147l0.071 0.037 0.057-0.057 0.356-0.356c0.042-0.042 0.112-0.042 0.154 0l0.546 0.546c0.043 0.043 0.043 0.112 0 0.154l-0.398 0.398 0.041 0.073c0.070 0.125 0.127 0.258 0.168 0.395l0.024 0.078h0.556c0.060 0 0.109 0.049 0.109 0.109v0.772c0 0.060-0.049 0.109-0.109 0.109h-0.556l-0.024 0.078c-0.042 0.138-0.098 0.27-0.168 0.395l-0.041 0.073 0.059 0.059z"></path>
  <path fill="#fff" d="M31.010 7.918c0.547 0 0.99-0.443 0.99-0.99s-0.443-0.99-0.99-0.99c-0.547 0-0.99 0.443-0.99 0.99s0.443 0.99 0.99 0.99z"></path>
  <path fill="#424242" d="M31.010 6.048c-0.485 0-0.88 0.395-0.88 0.88s0.395 0.88 0.88 0.88c0.485 0 0.88-0.395 0.88-0.88s-0.395-0.88-0.88-0.88zM31.010 8.027c-0.606 0-1.1-0.493-1.1-1.1s0.493-1.1 1.1-1.1c0.606 0 1.1 0.493 1.1 1.1s-0.493 1.1-1.1 1.1z"></path>
  <path fill="#424242" d="M30.006 8.477l0.145 0.082c0.103 0.058 0.212 0.106 0.324 0.143l0.151 0.050v0.706l0.771-0.001-0.001-0.681 0.162-0.044c0.124-0.034 0.244-0.080 0.358-0.139l0.143-0.073 0.469 0.469 0.544-0.546-0.457-0.456 0.082-0.145c0.067-0.118 0.12-0.244 0.159-0.373l0.047-0.156h0.638l-0.001-0.771-0.637 0.001-0.047-0.156c-0.039-0.129-0.093-0.255-0.159-0.373l-0.082-0.146 0.457-0.457-0.546-0.544-0.468 0.469-0.143-0.073c-0.114-0.059-0.235-0.105-0.358-0.139l-0.162-0.044v-0.682l-0.771 0.001 0.001 0.705-0.151 0.050c-0.112 0.037-0.221 0.085-0.324 0.144l-0.145 0.082-0.512-0.512-0.544 0.546 0.524 0.523-0.073 0.143c-0.051 0.099-0.093 0.203-0.125 0.309l-0.047 0.156h-0.748l0.001 0.771 0.747-0.001 0.047 0.156c0.032 0.106 0.074 0.21 0.125 0.309l0.073 0.143-0.524 0.524 0.546 0.544 0.511-0.512zM31.396 9.677h-0.772c-0.121 0-0.219-0.098-0.219-0.219v-0.547c-0.125-0.042-0.247-0.095-0.362-0.16h-0l-0.394 0.394c-0.085 0.085-0.224 0.085-0.31-0l-0.545-0.546c-0.086-0.085-0.086-0.224-0-0.31l0.411-0.411c-0.057-0.11-0.104-0.227-0.139-0.346h-0.585c-0.121 0-0.219-0.098-0.219-0.219v-0.772c0-0.121 0.098-0.219 0.219-0.219h0.585c0.036-0.119 0.083-0.235 0.139-0.346v-0l-0.411-0.411c-0.085-0.085-0.085-0.224 0-0.31l0.546-0.546c0.085-0.085 0.224-0.085 0.31-0l0.394 0.394c0.115-0.065 0.237-0.119 0.362-0.16v-0.547c0-0.121 0.098-0.219 0.219-0.219h0.772c0.121 0 0.219 0.098 0.219 0.219l0 0.514c0.138 0.038 0.273 0.090 0.401 0.155h0l0.356-0.356c0.085-0.085 0.224-0.085 0.31 0l0.546 0.546c0.085 0.086 0.085 0.224 0 0.31l-0.339 0.339c0.074 0.132 0.134 0.273 0.178 0.417h0.475c0.121 0 0.219 0.098 0.219 0.219v0.772c0 0.121-0.098 0.219-0.219 0.219h-0.475c-0.044 0.145-0.103 0.285-0.178 0.417l0.339 0.339c0.085 0.085 0.085 0.224-0 0.31l-0.546 0.546c-0.085 0.085-0.224 0.086-0.31 0l-0.356-0.356c-0.127 0.065-0.262 0.118-0.401 0.155v0.514c0 0.121-0.098 0.219-0.219 0.219v0z"></path>
  <path fill="#ffca74" d="M24.153 16.275l0.407 0.407c0.051 0.051 0.051 0.134-0 0.185l-0.655 0.655c-0.051 0.051-0.134 0.051-0.185 0l-0.495-0.495-0.085 0.044c-0.145 0.074-0.298 0.134-0.456 0.176l-0.097 0.027v0.718c0 0.072-0.059 0.131-0.131 0.131h-0.926c-0.072 0-0.131-0.058-0.131-0.131v-0.752l-0.090-0.030c-0.143-0.047-0.281-0.109-0.412-0.182l-0.087-0.049-0.071 0.071-0.473 0.473c-0.051 0.051-0.134 0.051-0.185-0l-0.655-0.655c-0.051-0.051-0.051-0.134-0-0.185l0.561-0.561-0.044-0.085c-0.064-0.126-0.117-0.257-0.158-0.393l-0.028-0.094h-0.8c-0.072 0-0.131-0.059-0.131-0.131v-0.926c0-0.072 0.058-0.131 0.131-0.131h0.8l0.028-0.094c0.041-0.136 0.094-0.267 0.158-0.393l0.044-0.085-0.561-0.561c-0.051-0.051-0.051-0.134 0-0.185l0.655-0.655c0.051-0.051 0.134-0.051 0.185-0l0.544 0.544 0.087-0.049c0.131-0.074 0.269-0.135 0.412-0.182l0.090-0.030v-0.752c0-0.072 0.059-0.131 0.131-0.131h0.926c0.072 0 0.131 0.058 0.131 0.131v0.718l0.097 0.026c0.158 0.043 0.311 0.102 0.456 0.176l0.085 0.044 0.068-0.068 0.427-0.427c0.051-0.051 0.134-0.051 0.185 0l0.655 0.655c0.051 0.051 0.051 0.134 0 0.185l-0.478 0.478 0.049 0.087c0.084 0.15 0.152 0.309 0.202 0.474l0.028 0.094h0.668c0.072 0 0.131 0.059 0.131 0.131v0.926c0 0.072-0.058 0.131-0.131 0.131h-0.668l-0.028 0.094c-0.050 0.165-0.118 0.324-0.202 0.474l-0.049 0.087 0.071 0.071z"></path>
  <path fill="#fff" d="M21.993 16.143c0.656 0 1.188-0.532 1.188-1.188s-0.532-1.188-1.188-1.188c-0.656 0-1.188 0.532-1.188 1.188s0.532 1.188 1.188 1.188z"></path>
  <path fill="#424242" d="M21.993 13.9c-0.582 0-1.056 0.474-1.056 1.056s0.474 1.056 1.056 1.056c0.582 0 1.056-0.474 1.056-1.056s-0.474-1.056-1.056-1.056zM21.993 16.275c-0.728 0-1.32-0.592-1.32-1.32s0.592-1.32 1.32-1.32c0.728 0 1.32 0.592 1.32 1.32s-0.592 1.32-1.32 1.32z"></path>
  <path fill="#424242" d="M20.787 16.814l0.174 0.098c0.124 0.069 0.255 0.127 0.389 0.172l0.181 0.060v0.847l0.925-0.001-0.001-0.817 0.194-0.053c0.149-0.040 0.293-0.096 0.43-0.166l0.171-0.087 0.563 0.563 0.653-0.655-0.548-0.547 0.098-0.174c0.080-0.142 0.144-0.293 0.191-0.448l0.057-0.188h0.766l-0.001-0.925-0.764 0.001-0.057-0.188c-0.047-0.155-0.111-0.306-0.191-0.448l-0.098-0.175 0.549-0.549-0.655-0.653-0.561 0.563-0.171-0.087c-0.137-0.070-0.282-0.126-0.43-0.167l-0.195-0.053v-0.818l-0.925 0.001 0.001 0.846-0.181 0.060c-0.134 0.045-0.265 0.103-0.389 0.172l-0.174 0.098-0.615-0.615-0.653 0.655 0.629 0.627-0.087 0.171c-0.061 0.119-0.111 0.243-0.15 0.371l-0.057 0.188h-0.898l0.001 0.925 0.896-0.001 0.057 0.188c0.039 0.128 0.089 0.252 0.15 0.371l0.087 0.171-0.629 0.629 0.655 0.653 0.613-0.615zM22.456 18.254h-0.926c-0.145 0-0.263-0.118-0.263-0.263v-0.657c-0.15-0.050-0.296-0.115-0.435-0.192h-0l-0.473 0.473c-0.103 0.102-0.269 0.103-0.372-0l-0.654-0.655c-0.103-0.102-0.103-0.269-0-0.372l0.493-0.493c-0.068-0.133-0.124-0.272-0.167-0.415h-0.702c-0.145 0-0.263-0.118-0.263-0.263v-0.926c0-0.145 0.118-0.263 0.263-0.263h0.702c0.043-0.143 0.099-0.282 0.167-0.415v-0l-0.493-0.493c-0.102-0.102-0.102-0.269 0-0.371l0.655-0.655c0.103-0.102 0.269-0.103 0.372-0l0.473 0.473c0.139-0.078 0.285-0.143 0.435-0.193v-0.657c0-0.145 0.118-0.263 0.263-0.263h0.926c0.145 0 0.263 0.118 0.263 0.263l0 0.617c0.166 0.045 0.328 0.108 0.481 0.186h0l0.427-0.427c0.102-0.102 0.269-0.102 0.371 0l0.655 0.655c0.102 0.103 0.102 0.269 0 0.372l-0.407 0.407c0.089 0.158 0.161 0.327 0.213 0.501h0.57c0.145 0 0.263 0.118 0.263 0.263v0.926c0 0.145-0.118 0.263-0.263 0.263h-0.57c-0.052 0.174-0.124 0.342-0.213 0.501l0.407 0.407c0.102 0.103 0.102 0.269-0 0.372l-0.655 0.655c-0.102 0.103-0.269 0.103-0.372 0l-0.427-0.427c-0.153 0.078-0.315 0.141-0.481 0.186v0.617c0 0.145-0.118 0.263-0.263 0.263v0z"></path>
  <path fill="#424242" d="M23.313 6.708h6.928c0.486 0 0.88 0.394 0.88 0.88v14.515c0 0.486-0.394 0.88-0.88 0.88h-6.928c-0.486 0-0.88-0.394-0.88-0.88v-14.515c0-0.486 0.394-0.88 0.88-0.88z"></path>
  <path fill="#fff" d="M22.433 7.588h8.687v13.746h-8.687v-13.746z"></path>
  <path fill="#424242" d="M22.653 21.113h8.247v-13.306h-8.247v13.306zM22.433 7.588h8.687v13.746h-8.687v-13.746z"></path>
  <path fill="#f5f5f5" d="M23.753 8.907h7.148v8.357h-7.148v-8.357z"></path>
  <path fill="#fff" d="M13.966 15.835c0-0.243 0.197-0.44 0.441-0.44h23.752v14.955c0 0.243-0.197 0.44-0.441 0.44h-23.311c-0.243 0-0.441-0.197-0.441-0.44v-14.515z"></path>
  <path fill="#424242" d="M14.406 15.615c-0.122 0-0.221 0.098-0.221 0.22v14.515c0 0.121 0.099 0.22 0.221 0.22h23.311c0.122 0 0.221-0.098 0.221-0.22v-14.735h-23.532zM13.966 15.835c0-0.243 0.197-0.44 0.441-0.44h23.752v14.955c0 0.243-0.197 0.44-0.441 0.44h-23.311c-0.243 0-0.441-0.197-0.441-0.44v-14.515z"></path>
  <path fill="#424242" d="M14.515 15.945h23.093v14.296h-23.093z"></path>
  <path fill="#e8e8e8" d="M11.216 30.57h29.691v0.88h-29.691v-0.88z"></path>
  <path fill="#424242" d="M11.436 31.23h29.251v-0.44h-29.251v0.44zM11.216 30.57h29.691v0.88h-29.691v-0.88z"></path>
  <path fill="#fff" d="M43.217 12.535c0-0.121-0.098-0.219-0.22-0.219h-9.346c-0.122 0-0.22 0.098-0.22 0.219v5.060c0 0.121 0.098 0.219 0.219 0.219h1.636l-0.344 1.1 1.828-1.1h6.227c0.122 0 0.22-0.098 0.22-0.219v-5.060z"></path>
  <path fill="#424242" d="M43.217 12.535v5.060c0 0.121-0.099 0.219-0.22 0.219h-6.227l-1.828 1.1 0.344-1.1h-1.636c-0.122 0-0.22-0.098-0.22-0.219v-5.060c0-0.121 0.099-0.219 0.22-0.219h9.346c0.122 0 0.22 0.098 0.22 0.219zM34.732 18.849c-0.060 0.193 0.15 0.358 0.323 0.254l1.776-1.068h6.166c0.243 0 0.44-0.196 0.44-0.439v-5.060c0-0.243-0.197-0.439-0.44-0.439h-9.346c-0.243 0-0.44 0.196-0.44 0.439v5.060c0 0.243 0.197 0.439 0.44 0.439h1.336l-0.254 0.814z"></path>
  <path fill="#00838f" d="M34.639 13.856h7.148v.22h-7.148v-.22zM34.639 14.955h6.378v.22h-6.378v-.22zM34.639 16.055h5.498v.22h-5.498v-.22z"></path>
  <path fill="#fff" d="M2.749 6.709c0-0.122 0.097-0.221 0.219-0.221h6.269c0.121 0 0.219 0.099 0.219 0.221v3.315c0 0.122-0.098 0.221-0.22 0.221h-1.052l0.236 0.751-1.253-0.751h-4.199c-0.121 0-0.219-0.099-0.219-0.221v-3.315z"></path>
  <path fill="#424242" d="M2.749 6.709v3.315c0 0.122 0.098 0.221 0.219 0.221h4.199l1.253 0.751-0.236-0.751h1.052c0.122 0 0.22-0.099 0.22-0.221v-3.315c0-0.122-0.098-0.221-0.219-0.221h-6.269c-0.122 0-0.219 0.099-0.219 0.221zM8.631 10.931c0.060 0.193-0.15 0.358-0.323 0.254l-1.201-0.72h-4.138c-0.243 0-0.439-0.198-0.439-0.441v-3.315c0-0.243 0.196-0.441 0.439-0.441h6.269c0.243 0 0.439 0.197 0.439 0.441v3.315c0 0.243-0.196 0.441-0.44 0.441h-0.752l0.146 0.466z"></path>
  <path fill="#00838f" d="M3.629 7.478h4.399v.22h-4.399v-.22zM3.629 8.247h5.058v.22h-5.058v-.22zM3.629 9.017h3.519v.22h-3.519v-.22z"></path>
  <path fill="#424242" d="M5.315 26.723c-.073.012-.146.025-.218.037-.06.011-.1.067-.089.127s.067.1.127.089c.071-.012.143-.025.216-.037.06-.01.1-.067.09-.127s-.067-.1-.127-.09zM4.446 26.884c-.073.015-.145.03-.216.045-.059.013-.097.071-.085.131s.071.097.131.084c.071-.015.142-.03.214-.045.059-.012.098-.07.086-.13s-.07-.098-.13-.086zM3.583 27.079c-.073.018-.144.037-.214.055-.059.016-.094.076-.078.135s.076.094.135.078c.069-.018.14-.037.211-.055.059-.015.095-.075.08-.133s-.075-.095-.133-.08zM2.73 27.32c-.072.023-.142.046-.211.07-.057.02-.088.082-.068.14s.082.088.14.068c.067-.023.136-.046.206-.069.058-.019.09-.08.071-.138s-.08-.09-.138-.071zM1.894 27.634c-.071.032-.139.064-.203.096-.054.027-.076.093-.049.148s.093.076.148.049c.062-.031.126-.062.194-.092.055-.025.08-.09.055-.145s-.09-.08-.145-.055zM1.112 28.1c-.065.056-.121.113-.168.171-.038.047-.031.116.016.155s.116.031.155-.016c.038-.047.085-.095.14-.143.046-.04.051-.109.011-.155s-.109-.051-.155-.011zM.836 29.007c.032.071.077.141.132.21.038.047.107.055.155.016s.055-.107.016-.155c-.044-.055-.078-.109-.103-.162-.025-.055-.09-.08-.146-.055s-.08.09-.055.146zM1.516 29.661c.062.037.128.073.198.109.054.028.12.007.148-.047s.007-.12-.047-.148c-.066-.034-.128-.068-.187-.103-.052-.031-.12-.014-.151.039s-.014.12.039.151zM2.325 30.038c.068.026.138.051.21.076.057.02.12-.011.14-.068s-.011-.12-.068-.14c-.07-.024-.138-.049-.204-.074-.057-.021-.12.007-.142.064s.007.12.064.142zM3.177 30.312c.07.019.142.039.214.057.059.015.119-.02.134-.079s-.02-.119-.079-.134c-.072-.019-.142-.037-.211-.056-.059-.016-.119.018-.135.077s.018.119.077.135zM4.033 30.521c.071.015.143.03.216.045.06.012.118-.026.13-.086s-.026-.118-.086-.13c-.072-.015-.144-.03-.214-.045-.059-.013-.118.025-.131.084s.025.118.084.131zM4.899 30.687c.072.012.145.024.218.036.06.01.116-.031.126-.091s-.031-.116-.091-.126c-.073-.012-.145-.024-.216-.036-.06-.01-.117.03-.127.09s.03.117.09.127zM5.775 30.82c.072.01.146.019.219.029.06.008.115-.035.123-.095s-.035-.115-.095-.123c-.073-.009-.145-.019-.217-.028-.06-.008-.116.034-.124.094s.034.116.094.124zM6.652 30.925c.073.008.146.015.219.022.06.006.114-.038.12-.099s-.038-.114-.099-.12c-.073-.007-.146-.015-.218-.022-.06-.006-.114.038-.121.098s.038.114.098.121zM7.533 31.005c.073.006.146.011.22.016.061.004.113-.041.118-.102s-.041-.113-.102-.118c-.073-.005-.146-.011-.219-.016-.061-.005-.113.041-.118.101s.041.113.101.118zM8.415 31.063c.073.004.147.008.22.011.061.003.112-.044.115-.105s-.044-.112-.105-.115c-.073-.003-.146-.007-.219-.011-.061-.003-.112.043-.116.104s.043.112.104.116zM9.298 31.101c.073.002.147.004.22.006.061.002.111-.046.113-.107s-.046-.111-.107-.113c-.073-.002-.146-.004-.219-.006-.061-.002-.111.046-.113.107s.046.111.107.113zM10.183 31.118c.073.001.147.001.22.001.061 0 .11-.049.11-.11s-.049-.11-.11-.11c-.073 0-.146-.001-.219-.001-.061-.001-.11.048-.111.109s.048.11.109.111zM27.271 9.347h.44v.44h-.44v-.44zM25.622 9.787h.44v-.44h-.44v.44zM25.402 9.127h.88v.88h-.88v-.88z"></path>
  <path fill="#9ccc65" d="M23.203 8.907h1.32v1.32h-1.32v-1.32z"></path>
  <path fill="#424242" d="M23.423 10.007h0.88v-0.88h-0.88v0.88zM23.203 8.907h1.32v1.32h-1.32v-1.32z"></path>
  <path fill="#9ccc65" d="M24.192 1.32c0 0.425-0.345 0.77-0.77 0.77s-0.77-0.345-0.77-0.77c0-0.425 0.345-0.77 0.77-0.77s0.77 0.345 0.77 0.77z"></path>
  <path fill="#424242" d="M23.423 1.869c.304 0 .55-.246.55-.55s-.246-.55-.55-.55c-.304 0-.55.246-.55.55s.246.55.55.55zM23.423 2.089c-.425 0-.77-.345-.77-.77s.345-.77.77-.77c.425 0 .77.345.77.77s-.345.77-.77.77zM23.533 5.498v-.22c0-.061-.049-.11-.11-.11s-.11.049-.11.11v.22c0 .061.049.11.11.11s.11-.049.11-.11zM23.533 4.619v-.22c0-.061-.049-.11-.11-.11s-.11.049-.11.11v.22c0 .061.049.11.11.11s.11-.049.11-.11zM23.533 3.739v-.22c0-.061-.049-.11-.11-.11s-.11.049-.11.11v.22c0 .061.049.11.11.11s.11-.049.11-.11zM23.533 2.859v-.22c0-.061-.049-.11-.11-.11s-.11.049-.11.11v.22c0 .061.049.11.11.11s.11-.049.11-.11z"></path>
  <path fill="#9ccc65" d="M17.045 7.368c0.425 0 0.77 0.345 0.77 0.77s-0.345 0.77-0.77 0.77c-0.425 0-0.77-0.345-0.77-0.77s0.345-0.77 0.77-0.77z"></path>
  <path fill="#424242" d="M17.595 8.137c0-.304-.246-.55-.55-.55s-.55.246-.55.55c0 .304.246.55.55.55s.55-.246.55-.55zM17.814 8.137c0 .425-.345.77-.77.77s-.77-.345-.77-.77c0-.425.345-.77.77-.77s.77.345.77.77zM21.223 8.027h-.22c-.061 0-.11.049-.11.11s.049.11.11.11h.22c.061 0 .11-.049.11-.11s-.049-.11-.11-.11zM20.344 8.027h-.22c-.061 0-.11.049-.11.11s.049.11.11.11h.22c.061 0 .11-.049.11-.11s-.049-.11-.11-.11zM19.464 8.027h-.22c-.061 0-.11.049-.11.11s.049.11.11.11h.22c.061 0 .11-.049.11-.11s-.049-.11-.11-.11zM18.584 8.027h-.22c-.061 0-.11.049-.11.11s.049.11.11.11h.22c.061 0 .11-.049.11-.11s-.049-.11-.11-.11z"></path>
  <path fill="#9ccc65" d="M19.227 2.744c0.301 0.301 0.301 0.788 0 1.089s-0.788 0.301-1.089 0c-0.301-0.301-0.301-0.788 0-1.089s0.788-0.301 1.089 0z"></path>
  <path fill="#424242" d="M19.072 3.677c.215-.215.215-.563 0-.778s-.563-.215-.778 0c-.215.215-.215.563 0 .778s.563.215.778 0zM19.227 3.832c-.301.301-.788.301-1.089 0s-.301-.788 0-1.089c.301-.301.788-.301 1.089 0s.301.788 0 1.089zM21.716 6.165l-.155-.155c-.043-.043-.113-.043-.155 0s-.043.113 0 .155l.155.155c.043.043.113.043.155 0s.043-.113 0-.155zM21.094 5.543l-.155-.155c-.043-.043-.113-.043-.155 0s-.043.113 0 .155l.155.155c.043.043.113.043.155 0s.043-.113 0-.155zM20.472 4.921l-.155-.155c-.043-.043-.113-.043-.155 0s-.043.113 0 .155l.155.155c.043.043.113.043.155 0s.043-.113 0-.155zM19.849 4.299l-.155-.155c-.043-.043-.113-.043-.155 0s-.043.113 0 .155l.155.155c.043.043.113.043.155 0s.043-.113 0-.155z"></path>
  <path fill="#9ccc65" d="M40.577 23.423h0.88v0.88h-0.88v-0.88z"></path>
  <path fill="#424242" d="M40.797 24.082h0.44v-0.44h-0.44v0.44zM40.577 23.423h0.88v0.88h-0.88v-0.88z"></path>
  <path fill="#9ccc65" d="M37.058 10.007h0.88v0.88h-0.88v-0.88z"></path>
  <path fill="#424242" d="M37.278 10.227v0.44h0.44v-0.44h-0.44zM37.058 10.007h0.88v0.88h-0.88v-0.88z"></path>
  <path fill="#fff" d="M16.935 16.605v12.866h0.22v-12.866z"></path>
  <path fill="#9ccc65" d="M18.364 17.924h2.749v-.22h-2.749zM18.364 19.024h2.749v-.22h-2.749z"></path>
  <path fill="#fff" d="M20.564 20.124h2.749v-.22h-2.749zM23.973 20.124h7.478v-.22h-7.478zM21.773 26.722h9.677v-.22h-9.677zM23.973 21.223h5.498v-.22h-5.498zM23.973 24.522h3.299v-.22h-3.299zM27.931 24.522h3.519v-.22h-3.519zM25.952 22.323h5.498v-.22h-5.498z"></path>
  <path fill="#fa5e5e" d="M23.973 22.323h1.32v-0.22h-1.32z"></path>
  <path fill="#fff" d="M20.564 21.223h2.749v-.22h-2.749zM20.564 22.323h2.749v-.22h-2.749z"></path>
  <path fill="#fa5e5e" d="M20.564 24.522h2.749v-.22h-2.749zM20.564 25.622h2.749v-.22h-2.749z"></path>
  <path fill="#9ccc65" d="M18.364 26.722h2.749v-.22h-2.749zM18.364 23.423h2.749v-.22h-2.749zM5.828 21.553h.88v.88h-.88v-.88z"></path>
  <path fill="#424242" d="M6.048 21.773v0.44h0.44v-0.44h-0.44zM5.828 21.553h0.88v0.88h-0.88v-0.88z"></path>
  <path fill="#9ccc65" d="M0.55 14.405h0.88v0.88h-0.88v-0.88z"></path>
  <path fill="#424242" d="M0.77 15.065h0.44v-0.44h-0.44v0.44zM0.55 14.405h0.88v0.88h-0.88v-0.88z"></path>
</svg>