<svg  xmlns="http://www.w3.org/2000/svg" xmlns:svg="http://www.w3.org/2000/svg" xmlns:xlink="http://www.w3.org/1999/xlink" viewBox="0 0 32 32" class="icon-svg icon-services-training-and-support-small service-icon">
  <path d="M17 1.997v6.006c0 .55.446.997.996.997h12.009c.546 0 .996-.446.996-.997v-6.006c0-.55-.446-.997-.996-.997h-12.009c-.546 0-.996.446-.996.997zM16 1.997c0-1.102.897-1.997 1.996-1.997h12.009c1.102 0 1.996.895 1.996 1.997v6.006c0 1.102-.897 1.997-1.996 1.997h-12.009c-1.102 0-1.996-.895-1.996-1.997v-6.006zM12 32h8v-1h-8z"></path>
  <path d="M16.5 31.5v-3h-1v3z"></path>
  <path d="M4.5 28.496c0 0.003 22.502 0.004 22.502 0.004-0.002 0-0.002-15.496-0.002-15.496 0-0.003-22.502-0.004-22.502-0.004 0.002 0 0.002 15.496 0.002 15.496zM3.5 13.004c0-0.554 0.446-1.004 0.998-1.004h22.503c0.551 0 0.998 0.45 0.998 1.004v15.493c0 0.554-0.446 1.004-0.998 1.004h-22.503c-0.551 0-0.998-0.45-0.998-1.004v-15.493z"></path>
  <path d="M16.515 24.646c0 .184-.066.349-.197.494s-.302.217-.513.217c-.21 0-.381-.072-.513-.217s-.197-.31-.197-.494c0-.184.066-.349.197-.494s.302-.217.513-.217c.21 0 .381.072.513.217s.197.31.197.494zM16.2 23.1h-.947v-1.094c0-.237.055-.455.164-.652s.243-.382.401-.553c.158-.171.329-.336.513-.494s.353-.327.506-.507c.153-.18.283-.371.388-.573s.158-.435.158-.698c0-.448-.142-.813-.427-1.094s-.655-.422-1.111-.422c-.447 0-.817.132-1.111.395s-.48.61-.559 1.041l-1.005-.002c.033-.34.174-.767.328-1.039s.346-.503.579-.692c.232-.189.498-.332.796-.428s.618-.145.96-.145c.351 0 .679.05.986.152s.572.248.796.441c.224.193.399.435.526.725s.191.619.191.988c0 .369-.053.681-.158.936s-.237.477-.394.665c-.158.189-.329.358-.513.507s-.355.31-.513.481c-.158.171-.289.367-.394.586s-.158.488-.158.804v.672zM18.75 3.5h10.5v-1h-10.5zM18.75 5.5h10.5v-1h-10.5zM18.75 7.5h10.5v-1h-10.5zM10.25 10.5c0 .414-.336.75-.75.75s-.75-.336-.75-.75c0-.414.336-.75.75-.75s.75.336.75.75zM5.25 10.5c0 .414-.336.75-.75.75s-.75-.336-.75-.75c0-.414.336-.75.75-.75s.75.336.75.75zM7.75 10.5c0 .414-.336.75-.75.75s-.75-.336-.75-.75c0-.414.336-.75.75-.75s.75.336.75.75z"></path>
  <path d="M14 13c0-0.001 0-0.002 0-0.003v-4.994c0-1.107-0.896-2.003-2.002-2.003h-9.995c-1.106 0-2.002 0.897-2.002 2.003v4.994c0 1.107 0.896 2.003 2.002 2.003h2.498v-1h-2.498c-0.554 0-1.002-0.449-1.002-1.003v-4.994c0-0.554 0.448-1.003 1.002-1.003h9.995c0.554 0 1.002 0.449 1.002 1.003v4.994c0 0.001 0 0.002 0 0.003h1z"></path>
</svg>