<?xml version="1.0" encoding="UTF-8" standalone="no"?>
<svg class="icon-svg icon-services-technology-small service-icon" xmlns="http://www.w3.org/2000/svg" xmlns:xlink="http://www.w3.org/1999/xlink" viewBox="0 0 32 32">
 <path d="m20.25 23h1v4.996c0 2.212-1.787 4.004-3.997 4.004h-9.007c-2.207 0-3.997-1.789-3.997-4.004v-23.991c0-2.212 1.787-4.004 3.997-4.004h9.007c2.207 0 3.997 1.789 3.997 4.004v3.496h-1v-3h-15v20.5h15v-2zm0 3h-15v1.996c0 1.662 1.341 3.004 2.997 3.004h9.007c1.656 0 2.997-1.344 2.997-3.004v-1.996zm-14.958-22.5h14.916c-0.239-1.421-1.47-2.5-2.955-2.5h-9.007c-1.484 0-2.716 1.08-2.955 2.5z"/>
 <path d="m22.216 20.726l1.194-0.494 1.668 0.841 1.245-1.246-0.84-1.668 0.494-1.193 1.773-0.586v-1.762l-1.773-0.586-0.494-1.193 0.84-1.668-1.245-1.245-1.668 0.84-1.194-0.494-0.585-1.773h-1.762l-0.585 1.773-1.193 0.494-1.668-0.84-1.246 1.245 0.84 1.668-0.494 1.193-1.773 0.586v1.762l1.773 0.586 0.494 1.193-0.84 1.668 1.246 1.245 1.668-0.84 1.193 0.494 0.585 1.774h1.762l0.585-1.774zm0.138 2.774h-3.208l-0.668-2.025-0.346-0.143-1.904 0.959-2.269-2.267 0.959-1.905-0.144-0.347-2.024-0.669v-3.207l2.024-0.669 0.144-0.347-0.959-1.905 2.269-2.267 1.904 0.959 0.346-0.144 0.668-2.025h3.208l0.668 2.025 0.347 0.144 1.904-0.959 2.268 2.267-0.959 1.905 0.144 0.347 2.024 0.669v3.207l-2.024 0.669-0.144 0.347 0.959 1.904-2.267 2.269-1.905-0.96-0.347 0.144-0.668 2.025z"/>
 <path d="m20.75 17.5c1.105 0 2-0.895 2-2s-0.895-2-2-2c-1.105 0-2 0.895-2 2s0.895 2 2 2zm0 1c-1.657 0-3-1.343-3-3s1.343-3 3-3c1.657 0 3 1.343 3 3s-1.343 3-3 3zm-7 10.25c0 0.69-0.56 1.25-1.25 1.25s-1.25-0.56-1.25-1.25c0-0.69 0.56-1.25 1.25-1.25s1.25 0.56 1.25 1.25z"/>
</svg>
