<svg xmlns="http://www.w3.org/2000/svg" viewBox="0 0 78 53" width="78" height="53" aria-label="Architectural reviews"><g fill="currentColor"><path d="M2.05 42.63V1.73h62.42v21.34l1.64.57V.92c0-.45-.34-.82-.8-.82H1.24C.78.1.4.47.4.92v42.53c0 .45.38.82.83.82H65.3c.44 0 .8-.37.8-.82V28.8l-1.63-.52v14.35H2.05z"></path><path d="M77.7 29.6l-19.92-7.34-.56 1.54 19.9 7.32M56.33 44.27l1.96 7.82 1.56-.4-2.1-8.47c-.1-.36-.43-.62-.8-.62H9.53c-.37 0-.7.27-.8.63l-2.1 8.44 1.58.4 1.98-7.83h46.15z"></path><path d="M4.66 52.3h5.54v-1.64H4.66M56.32 52.3h5.54v-1.64h-5.54M8.07 9.4h7.42V7.74H8.04M17.67 9.4h17.87V7.74H17.67M16.25 13.86h12.9v-1.64h-12.9M31.2 13.86h8.63v-1.64H31.2M25.86 18.46h32.67v-1.64H25.86M8.07 23.3H22.6v-1.6H8.06M24.77 23.3h10.76v-1.6H24.77M16.25 27.78h5.8v-1.64h-5.8M24.1 27.78h15.73v-1.64H24.1M25.86 32.38h20.7v-1.63h-20.7M49.18 32.38h9.35v-1.63h-9.35M8.07 37.24H29.7V35.6H8.06M31.86 37.24h3.67V35.6h-3.67"></path></g></svg>