<svg xmlns="http://www.w3.org/2000/svg" viewBox="0 0 62 59" width="62" height="59" class="project-description__figure__media" aria-label="Full-stack projects"><g fill="currentColor" fill-rule="evenodd" transform="translate(0 -.17)"><path fill-rule="nonzero" d="M59.8 40.3c0-9.4-7.6-17-17-17-9.3 0-17 7.6-17 17s7.7 17 17 17c9.4 0 17-7.6 17-17zm1.7 0C61.5 50.6 53 59 42.8 59s-18.6-8.4-18.6-18.7c0-10.3 8.4-18.6 18.6-18.6 10.3 0 18.7 8.3 18.7 18.6z"></path><path fill-rule="nonzero" d="M47.8 19.2c0-9.4-7.6-17-17-17s-17 7.6-17 17c0 9.3 7.6 17 17 17s17-7.7 17-17zm1.6 0c0 10.2-8.3 18.6-18.6 18.6S12 29.4 12 19.2C12 9 20.6.5 31 .5S49.4 9 49.4 19.2z"></path><path fill-rule="nonzero" d="M35.6 40.3c0-9.4-7.6-17-17-17s-17 7.6-17 17 7.6 17 17 17 17-7.6 17-17zm1.6 0C37.2 50.6 29 59 18.6 59S0 50.5 0 40.2C0 30 8.3 21.7 18.6 21.7S37.2 30 37.2 40.3z"></path><circle cx="9.9" cy="36" r="1"></circle><circle cx="6.7" cy="30.3" r="1"></circle><circle cx="4.2" cy="39.3" r="1"></circle><circle cx="15.7" cy="32.7" r="1"></circle><circle cx="12.4" cy="27" r="1"></circle><circle cx="13.2" cy="41.7" r="1"></circle><circle cx="7.5" cy="45" r="1"></circle><circle cx="18.9" cy="38.4" r="1"></circle><circle cx="21.4" cy="29.4" r="1"></circle><circle cx="30.4" cy="31.9" r="1"></circle><circle cx="27.9" cy="40.9" r="1"></circle><circle cx="22.2" cy="44.2" r="1"></circle><circle cx="16.5" cy="47.4" r="1"></circle><circle cx="10.8" cy="50.7" r="1"></circle><circle cx="14" cy="56.4" r="1"></circle><circle cx="19.8" cy="53.2" r="1"></circle><circle cx="25.5" cy="49.9" r="1"></circle><circle cx="31.2" cy="46.6" r="1"></circle><circle cx="33.7" cy="37.6" r="1"></circle><path fill-rule="nonzero" d="M40.6 22L33 55.3l1 .2L41.3 22M47.7 22.8L37.7 58l.7.2 10-35.2M52.6 25.3L44.2 58l.8.2 8.4-32.7M58.4 31.4l-6.4 24h.8l6.4-23.8M33.3 25L27 49.2l1 .2 6-24.2"></path><circle cx="18.1" cy="23.7" r="1"></circle><circle cx="27.1" cy="26.2" r="1"></circle></g></svg>