<svg xmlns="http://www.w3.org/2000/svg" viewBox="0 0 49 66" width="49" height="66" class="project-description__figure__media" aria-label="Staff augmentation"><g fill="currentColor" fill-rule="evenodd"><path fill-rule="nonzero" d="M1.754 26.18c-.413.733-1.53.44-1.53-.402v-.333C.224 12.155 11.272.785 24.54.785c13.268 0 24.316 11.37 24.316 24.66v.333c0 .842-1.117 1.135-1.53.402-1.37-2.432-4.233-3.728-7.085-3.132-2.55.534-4.53 2.47-5.11 4.91-.18.768-1.24.858-1.54.133-1.51-3.52-5.05-5.88-9.04-5.88-3.99 0-7.53 2.35-9.04 5.88-.31.73-1.36.64-1.55-.13-.58-2.44-2.55-4.37-5.11-4.91-2.85-.59-5.71.7-7.08 3.14zm7.42-4.734c2.523.527 4.595 2.157 5.706 4.335 2.06-3.18 5.67-5.2 9.66-5.2s7.6 2.02 9.66 5.21c1.11-2.18 3.183-3.81 5.706-4.33 2.653-.55 5.32.21 7.216 1.91-1.08-11.48-10.93-20.94-22.582-20.94-11.652 0-21.5 9.46-22.582 20.94 1.897-1.693 4.563-2.46 7.216-1.903z"></path><path d="M1.715 25.313l1.395 2.02-1.346.93-1.395-2.02M4.5 29.35l1.4 2.02-1.346.93-1.395-2.02m4.13 3.11l1.39 2.018-1.35.93-1.4-2.02m4.13 3.11l1.39 2.02-1.35.93-1.396-2.02m4.14 3.107l1.394 2.02-1.346.93-1.396-2.02m4.133 3.108l1.4 2.02-1.347.93-1.396-2.02m4.137 3.107l1.39 2.02-1.35.93-1.394-2.02m4.43 3.106l1.67 2.62-1.35.93-1.67-2.62m.907-4.44l-1.24-4.48 1.562-.48 1.246 4.483m-4.04-6.35l-.716-2.35 1.566-.48.72 2.35m-3-4.22l-.71-2.35 1.56-.48.716 2.34m-3-4.22l-.712-2.34 1.566-.48.717 2.342m-3-4.213L13.96 28l1.564-.48.353 1.155"></path><path fill-rule="nonzero" d="M20.738 65.626c-.452 0-.818-.366-.818-.818V56.61c0-.45.366-.817.818-.817h8.166c.45 0 .818.366.818.818v8.2c0 .45-.367.82-.818.82h-8.166zm7.348-1.636v-6.56h-6.53v6.56h6.53z"></path><path d="M47.365 25.313l-1.394 2.02 1.35.93 1.4-2.02m-4.14 3.107l-1.39 2.02 1.35.93 1.4-2.02m-4.14 3.11l-1.39 2.018 1.35.93 1.4-2.02M39 37.428l-1.396 2.02 1.348.93 1.395-2.02m-4.137 3.107l-1.395 2.02 1.348.93 1.395-2.02m-4.137 3.108l-1.39 2.02 1.35.93 1.4-2.02m-4.14 3.107l-1.39 2.02 1.35.93 1.4-2.02m-1.51-7.23l.718-2.347-1.563-.48-.714 2.348m3-4.21l.72-2.34-1.566-.48-.72 2.35m3-4.21l.72-2.34-1.567-.48-.72 2.35m3-4.214l.35-1.152-1.565-.48-.35 1.16M28.1 53.59l-1.67 2.62 1.345.93 1.67-2.62"></path><path fill-rule="nonzero" d="M24.014.976c-.092.076-.25.22-.465.428-.35.34-.74.75-1.16 1.227-1.18 1.36-2.36 3-3.46 4.93-3.13 5.5-5.01 12.22-5.01 20.21 0 .45.36.82.82.82.45 0 .82-.36.82-.82 0-7.7 1.8-14.15 4.79-19.4 1.04-1.83 2.16-3.38 3.27-4.66.38-.44.74-.82 1.06-1.13.18-.18.31-.29.37-.35.34-.29.39-.8.1-1.15-.29-.34-.81-.39-1.15-.1z"></path><path fill-rule="nonzero" d="M24.014 2.228c.06.052.19.168.377.35.32.31.68.685 1.07 1.128 1.12 1.276 2.23 2.827 3.27 4.66 2.99 5.254 4.79 11.702 4.79 19.402 0 .45.37.818.82.818.45 0 .82-.367.82-.818 0-7.99-1.87-14.717-5-20.212-1.1-1.93-2.28-3.57-3.46-4.925-.42-.47-.8-.88-1.15-1.22-.21-.21-.37-.35-.46-.43-.34-.29-.86-.24-1.15.1-.29.35-.243.86.1 1.15z"></path><path d="M28.192 50.067l1.245-4.48-1.564-.48-1.246 4.482"></path></g></svg>