<svg xmlns="http://www.w3.org/2000/svg" viewBox="0 0 67 61" width="67" height="61" aria-label="Staff training"><g fill="currentColor" fill-rule="nonzero"><path d="M33.66 10.7l9.12 36.5 1.6-.38-9.12-36.48c-.13-.52-.9 0-1.6 0-.77 0-1.48-.5-1.62.1l-9.1 36.38 1.6.4 9.12-36.53z"></path><path d="M42.26 28.07c-2.38 2.05-5.4 3.2-8.6 3.2-3.2 0-6.22-1.15-8.6-3.2L24 29.3c2.66 2.3 6.06 3.6 9.66 3.6 3.6 0 7-1.3 9.67-3.6l-1.07-1.23zM32.72 0v3.7h1.64V0"></path><path d="M32.62 29.58v4.97h1.64v-4.97M37.33 7.32c0 2.03-1.64 3.67-3.67 3.67-2.03 0-3.68-1.7-3.68-3.7 0-2.07 1.65-3.7 3.68-3.7 2.03 0 3.67 1.63 3.67 3.7"></path><path d="M36.52 7.32c0-1.58-1.28-2.86-2.86-2.86-1.58 0-2.86 1.28-2.86 2.86 0 1.57 1.28 2.85 2.86 2.85 1.58 0 2.86-1.28 2.86-2.85zm1.63 0c0 2.48-2 4.5-4.5 4.5-2.47 0-4.5-2.02-4.5-4.5 0-2.5 2.03-4.5 4.5-4.5 2.5 0 4.5 2 4.5 4.5zM11.58 22.16H56.1c.4 0 .7-.36.7-.8 0-.47-.3-.83-.7-.83H11.58c-.4 0-.7.36-.7.82 0 .45.3.8.7.8z"></path><path d="M65 21.9c0-2.92-2.36-5.27-5.26-5.27-.83 0-1.64.2-2.36.55v29.46c.75-.27 1.54-.4 2.36-.4 2.1 0 4 .93 5.26 2.43V21.9zM7.55 46.22c.8 0 1.6.14 2.36.4V17.2c-.7-.36-1.5-.55-2.3-.55-2.9 0-5.25 2.35-5.25 5.26v26.8c1.26-1.5 3.14-2.4 5.26-2.4zM.65 21.9c0-3.82 3.1-6.9 6.9-6.9 1.3 0 2.52.35 3.6 1 .24.15.4.42.4.7v31.24c0 .64-.7 1.03-1.25.7-.82-.5-1.77-.78-2.75-.78-2.9 0-5.26 2.36-5.26 5.26s2.3 5.26 5.2 5.26h52.2c2.9 0 5.24-2.35 5.24-5.26 0-2.9-2.37-5.26-5.27-5.26-1 0-1.93.27-2.75.78-.55.33-1.25-.06-1.25-.7V16.7c0-.28.16-.55.4-.7 1.08-.65 2.3-1 3.6-1 3.8 0 6.9 3.08 6.9 6.9v31.22c0 3.8-3.1 6.9-6.9 6.9H7.55c-3.8 0-6.9-3.1-6.9-6.9V21.9z"></path></g></svg>